<?xml version="1.0" encoding="UTF-8" standalone="no"?>
<svg width="20px" height="20px" viewBox="0 0 20 20" version="1.1" xmlns="http://www.w3.org/2000/svg" xmlns:xlink="http://www.w3.org/1999/xlink" xmlns:sketch="http://www.bohemiancoding.com/sketch/ns">
    <title>Untitled 8</title>
    <description>Created with Sketch (http://www.bohemiancoding.com/sketch)</description>
    <defs></defs>
    <g id="Page-1" stroke="none" stroke-width="1" fill="none" fill-rule="evenodd" sketch:type="MSPage">
        <path d="M20.5714286,18.4285714 C20.5714286,18.8229186 20.431921,19.1595968 20.1529018,19.4386161 C19.8738825,19.7176353 19.5372044,19.8571429 19.1428571,19.8571429 C18.7410694,19.8571429 18.4062513,19.7157752 18.1383929,19.4330357 L14.3102679,15.6160714 C12.978416,16.5386951 11.4940558,17 9.85714286,17 C8.79314944,17 7.7756745,16.7935289 6.8046875,16.3805804 C5.8337005,15.9676319 4.9966553,15.4096017 4.29352679,14.7064732 C3.59039827,14.0033447 3.03236814,13.1662995 2.61941964,12.1953125 C2.20647115,11.2243255 2,10.2068506 2,9.14285714 C2,8.07886373 2.20647115,7.06138878 2.61941964,6.09040179 C3.03236814,5.11941479 3.59039827,4.28236959 4.29352679,3.57924107 C4.9966553,2.87611256 5.8337005,2.31808242 6.8046875,1.90513393 C7.7756745,1.49218544 8.79314944,1.28571429 9.85714286,1.28571429 C10.9211363,1.28571429 11.9386112,1.49218544 12.9095982,1.90513393 C13.8805852,2.31808242 14.7176304,2.87611256 15.4207589,3.57924107 C16.1238874,4.28236959 16.6819176,5.11941479 17.0948661,6.09040179 C17.5078146,7.06138878 17.7142857,8.07886373 17.7142857,9.14285714 C17.7142857,10.7797701 17.2529808,12.2641302 16.3303571,13.5959821 L20.1584821,17.4241071 C20.4337811,17.6994061 20.5714286,18.0342242 20.5714286,18.4285714 Z M14.8571429,9.14285714 C14.8571429,7.76636217 14.3679364,6.58891858 13.3895089,5.61049107 C12.4110814,4.63206356 11.2336378,4.14285714 9.85714286,4.14285714 C8.48064788,4.14285714 7.3032043,4.63206356 6.32477679,5.61049107 C5.34634927,6.58891858 4.85714286,7.76636217 4.85714286,9.14285714 C4.85714286,10.5193521 5.34634927,11.6967957 6.32477679,12.6752232 C7.3032043,13.6536507 8.48064788,14.1428571 9.85714286,14.1428571 C11.2336378,14.1428571 12.4110814,13.6536507 13.3895089,12.6752232 C14.3679364,11.6967957 14.8571429,10.5193521 14.8571429,9.14285714 Z M13.4285714,8.78571429 L13.4285714,9.5 C13.4285714,9.59672667 13.3932295,9.68043119 13.3225446,9.75111607 C13.2518598,9.82180095 13.1681552,9.85714286 13.0714286,9.85714286 L10.5714286,9.85714286 L10.5714286,12.3571429 C10.5714286,12.4538695 10.5360867,12.5375741 10.4654018,12.6082589 C10.3947169,12.6789438 10.3110124,12.7142857 10.2142857,12.7142857 L9.5,12.7142857 C9.40327333,12.7142857 9.31956881,12.6789438 9.24888393,12.6082589 C9.17819905,12.5375741 9.14285714,12.4538695 9.14285714,12.3571429 L9.14285714,9.85714286 L6.64285714,9.85714286 C6.54613047,9.85714286 6.46242595,9.82180095 6.39174107,9.75111607 C6.32105619,9.68043119 6.28571429,9.59672667 6.28571429,9.5 L6.28571429,8.78571429 C6.28571429,8.68898761 6.32105619,8.60528309 6.39174107,8.53459821 C6.46242595,8.46391334 6.54613047,8.42857143 6.64285714,8.42857143 L9.14285714,8.42857143 L9.14285714,5.92857143 C9.14285714,5.83184475 9.17819905,5.74814023 9.24888393,5.67745536 C9.31956881,5.60677048 9.40327333,5.57142857 9.5,5.57142857 L10.2142857,5.57142857 C10.3110124,5.57142857 10.3947169,5.60677048 10.4654018,5.67745536 C10.5360867,5.74814023 10.5714286,5.83184475 10.5714286,5.92857143 L10.5714286,8.42857143 L13.0714286,8.42857143 C13.1681552,8.42857143 13.2518598,8.46391334 13.3225446,8.53459821 C13.3932295,8.60528309 13.4285714,8.68898761 13.4285714,8.78571429 Z" id="-" fill-opacity="0.5" fill="#999999" sketch:type="MSShapeGroup"></path>
    </g>
</svg>