<?xml version="1.0" encoding="UTF-8" standalone="no"?>
<svg width="89.1px" height="85px" viewBox="0 0 89.1 85" version="1.1" xmlns="http://www.w3.org/2000/svg" xmlns:xlink="http://www.w3.org/1999/xlink" xmlns:sketch="http://www.bohemiancoding.com/sketch/ns">
    <title>Untitled 8</title>
    <description>Created with Sketch (http://www.bohemiancoding.com/sketch)</description>
    <defs></defs>
    <g id="Page-1" stroke="none" stroke-width="1" fill="none" fill-rule="evenodd" sketch:type="MSPage">
        <path d="M86.75,34.9464286 L67.3035714,53.9107143 L71.9107143,80.6964286 C71.9464287,80.9464298 71.9642857,81.3035691 71.9642857,81.7678571 C71.9642857,82.5178609 71.7767876,83.1517831 71.4017857,83.6696429 C71.0267838,84.1875026 70.4821464,84.4464286 69.7678571,84.4464286 C69.0892823,84.4464286 68.3750038,84.232145 67.625,83.8035714 L43.5714286,71.1607143 L19.5178571,83.8035714 C18.7321389,84.232145 18.0178604,84.4464286 17.375,84.4464286 C16.6249962,84.4464286 16.0625019,84.1875026 15.6875,83.6696429 C15.3124981,83.1517831 15.125,82.5178609 15.125,81.7678571 C15.125,81.5535704 15.1607139,81.1964311 15.2321429,80.6964286 L19.8392857,53.9107143 L0.339285714,34.9464286 C-0.553575893,33.982138 -1,33.1250038 -1,32.375 C-1,31.0535648 -9.99999997e-06,30.2321445 2,29.9107143 L28.8928571,26 L40.9464286,1.625 C41.6250034,0.160706964 42.4999946,-0.571428571 43.5714286,-0.571428571 C44.6428625,-0.571428571 45.5178537,0.160706964 46.1964286,1.625 L58.25,26 L85.1428571,29.9107143 C87.1428671,30.2321445 88.1428571,31.0535648 88.1428571,32.375 C88.1428571,33.1607182 87.6785761,34.0178525 86.75,34.9464286 Z" id="" fill-opacity="0.7" fill="#FF6347" sketch:type="MSShapeGroup"></path>
    </g>
</svg>